<mxfile host="app.diagrams.net" modified="2024-01-29T15:28:02.805Z" agent="Mozilla/5.0 (Windows NT 10.0; Win64; x64) AppleWebKit/537.36 (KHTML, like Gecko) Chrome/120.0.0.0 Safari/537.36" etag="UKSLHAYOyUMH8wDNFbiS" version="23.0.2" type="github">
  <diagram name="Page-1" id="iWM8F4ieGeH4_vaYs4WB">
    <mxGraphModel dx="1050" dy="557" grid="1" gridSize="10" guides="1" tooltips="1" connect="1" arrows="1" fold="1" page="1" pageScale="1" pageWidth="850" pageHeight="1100" math="0" shadow="0">
      <root>
        <mxCell id="0" />
        <mxCell id="1" parent="0" />
        <mxCell id="NaQoKHvgldikXw9V-TxC-16" value="" style="edgeStyle=orthogonalEdgeStyle;rounded=0;orthogonalLoop=1;jettySize=auto;html=1;" parent="1" source="NaQoKHvgldikXw9V-TxC-1" target="NaQoKHvgldikXw9V-TxC-5" edge="1">
          <mxGeometry relative="1" as="geometry" />
        </mxCell>
        <mxCell id="NaQoKHvgldikXw9V-TxC-1" value="Export DDL from SQL Server&lt;br&gt;" style="rounded=0;whiteSpace=wrap;html=1;" parent="1" vertex="1">
          <mxGeometry x="400" y="40" width="170" height="50" as="geometry" />
        </mxCell>
        <mxCell id="NaQoKHvgldikXw9V-TxC-20" value="" style="edgeStyle=orthogonalEdgeStyle;rounded=0;orthogonalLoop=1;jettySize=auto;html=1;" parent="1" source="NaQoKHvgldikXw9V-TxC-4" target="NaQoKHvgldikXw9V-TxC-9" edge="1">
          <mxGeometry relative="1" as="geometry" />
        </mxCell>
        <mxCell id="NaQoKHvgldikXw9V-TxC-4" value="Review Error Messages&lt;br&gt;&lt;br&gt;" style="rounded=0;whiteSpace=wrap;html=1;" parent="1" vertex="1">
          <mxGeometry x="160" y="120" width="180" height="50" as="geometry" />
        </mxCell>
        <mxCell id="NaQoKHvgldikXw9V-TxC-15" value="" style="edgeStyle=orthogonalEdgeStyle;rounded=0;orthogonalLoop=1;jettySize=auto;html=1;" parent="1" source="NaQoKHvgldikXw9V-TxC-5" target="NaQoKHvgldikXw9V-TxC-4" edge="1">
          <mxGeometry relative="1" as="geometry" />
        </mxCell>
        <mxCell id="NaQoKHvgldikXw9V-TxC-18" value="" style="edgeStyle=orthogonalEdgeStyle;rounded=0;orthogonalLoop=1;jettySize=auto;html=1;" parent="1" source="UNrgmgvKtxE7_YkuY47O-1" target="NaQoKHvgldikXw9V-TxC-6" edge="1">
          <mxGeometry relative="1" as="geometry" />
        </mxCell>
        <mxCell id="NaQoKHvgldikXw9V-TxC-5" value="Deploy into Babelfish" style="rounded=0;whiteSpace=wrap;html=1;" parent="1" vertex="1">
          <mxGeometry x="395" y="120" width="180" height="50" as="geometry" />
        </mxCell>
        <mxCell id="NaQoKHvgldikXw9V-TxC-6" value="&#xa;&lt;span style=&quot;color: rgb(0, 0, 0); font-family: Helvetica; font-size: 12px; font-style: normal; font-variant-ligatures: normal; font-variant-caps: normal; font-weight: 400; letter-spacing: normal; orphans: 2; text-align: center; text-indent: 0px; text-transform: none; widows: 2; word-spacing: 0px; -webkit-text-stroke-width: 0px; background-color: rgb(251, 251, 251); text-decoration-thickness: initial; text-decoration-style: initial; text-decoration-color: initial; float: none; display: inline !important;&quot;&gt;Validate all objects have been created.&lt;/span&gt;&#xa;&#xa;" style="rounded=0;whiteSpace=wrap;html=1;" parent="1" vertex="1">
          <mxGeometry x="395" y="340" width="180" height="70" as="geometry" />
        </mxCell>
        <mxCell id="UNrgmgvKtxE7_YkuY47O-4" style="edgeStyle=orthogonalEdgeStyle;rounded=0;orthogonalLoop=1;jettySize=auto;html=1;entryX=0;entryY=0.5;entryDx=0;entryDy=0;" edge="1" parent="1" source="NaQoKHvgldikXw9V-TxC-9" target="NaQoKHvgldikXw9V-TxC-6">
          <mxGeometry relative="1" as="geometry" />
        </mxCell>
        <mxCell id="NaQoKHvgldikXw9V-TxC-9" value="Deploy any missing objects / correct scripts for compatibility" style="rounded=0;whiteSpace=wrap;html=1;" parent="1" vertex="1">
          <mxGeometry x="160" y="340" width="180" height="70" as="geometry" />
        </mxCell>
        <mxCell id="UNrgmgvKtxE7_YkuY47O-2" value="" style="edgeStyle=orthogonalEdgeStyle;rounded=0;orthogonalLoop=1;jettySize=auto;html=1;" edge="1" parent="1" source="NaQoKHvgldikXw9V-TxC-5" target="UNrgmgvKtxE7_YkuY47O-1">
          <mxGeometry relative="1" as="geometry">
            <mxPoint x="485" y="250" as="sourcePoint" />
            <mxPoint x="485" y="420" as="targetPoint" />
          </mxGeometry>
        </mxCell>
        <mxCell id="UNrgmgvKtxE7_YkuY47O-1" value="Are there Errors?" style="rhombus;whiteSpace=wrap;html=1;" vertex="1" parent="1">
          <mxGeometry x="427.5" y="200" width="115" height="110" as="geometry" />
        </mxCell>
      </root>
    </mxGraphModel>
  </diagram>
</mxfile>
